HIERARCHY
ROOT Hips
{
	OFFSET 0.000000 0.000000 0.000000
	CHANNELS 6 Xposition Yposition Zposition Zrotation Yrotation Xrotation 
	JOINT LeftUpLeg_virtual
	{
		OFFSET 0.000000 0.000000 0.000000
		CHANNELS 3 Zrotation Yrotation Xrotation
		JOINT LeftUpLeg
		{
			OFFSET 10.205400 -3.823500 0.155100
			CHANNELS 3 Zrotation Yrotation Xrotation
			JOINT LeftLeg
			{
				OFFSET 0.708757 -12.982077 0.567790
				CHANNELS 3 Zrotation Yrotation Xrotation
				JOINT LeftFoot
				{
					OFFSET -0.708756 -10.717838 -2.184338
					CHANNELS 3 Zrotation Yrotation Xrotation
					JOINT LeftToeBase
					{
						OFFSET 0.108149 -7.191104 7.560241
						CHANNELS 3 Zrotation Yrotation Xrotation
						End Site
						{
							OFFSET 0.000000 0.000000 0.000000
						}
					}
				}
			}
		}
	}
	JOINT RightUpLeg_virtual
	{
		OFFSET 0.000000 0.000000 0.000000
		CHANNELS 3 Zrotation Yrotation Xrotation
		JOINT RightUpLeg
		{
			OFFSET -10.205400 -3.823500 0.005500
			CHANNELS 3 Zrotation Yrotation Xrotation
			JOINT RightLeg
			{
				OFFSET -0.708756 -12.982134 0.610632
				CHANNELS 3 Zrotation Yrotation Xrotation
				JOINT RightFoot
				{
					OFFSET 0.708754 -10.717769 -1.945823
					CHANNELS 3 Zrotation Yrotation Xrotation
					JOINT RightToeBase
					{
						OFFSET -0.108140 -7.191069 7.372968
						CHANNELS 3 Zrotation Yrotation Xrotation
						End Site
						{
							OFFSET 0.000000 0.000000 0.000000
						}
					}
				}
			}
		}
	}
	JOINT Spine_virtual
	{
		OFFSET 0.000000 0.000000 0.000000
		CHANNELS 3 Zrotation Yrotation Xrotation
		JOINT Spine
		{
			OFFSET 0.000000 6.876099 0.125700
			CHANNELS 3 Zrotation Yrotation Xrotation
			JOINT Spine1
			{
				OFFSET 0.000000 8.022060 0.146608
				CHANNELS 3 Zrotation Yrotation Xrotation
				JOINT Spine2
				{
					OFFSET 0.000000 9.168068 0.167552
					CHANNELS 3 Zrotation Yrotation Xrotation
					JOINT Neck_virtual
					{
						OFFSET 0.000000 0.000000 0.000000
						CHANNELS 3 Zrotation Yrotation Xrotation
						JOINT Neck
						{
							OFFSET 0.000000 10.314075 0.188496
							CHANNELS 3 Zrotation Yrotation Xrotation
							JOINT Head
							{
								OFFSET 0.000000 7.643700 -2.377400
								CHANNELS 3 Zrotation Yrotation Xrotation
								End Site
								{
									OFFSET 0.000000 0.000000 0.000000
								}
							}
						}
					}
					JOINT LeftShoulder_virtual
					{
						OFFSET 0.000000 0.000000 0.000000
						CHANNELS 3 Zrotation Yrotation Xrotation
						JOINT LeftShoulder
						{
							OFFSET 4.392200 8.824978 0.174984
							CHANNELS 3 Zrotation Yrotation Xrotation
							JOINT LeftArm
							{
								OFFSET 8.771219 -2.981674 -0.026999
								CHANNELS 3 Zrotation Yrotation Xrotation
								JOINT LeftForeArm
								{
									OFFSET 8.512804 0.000000 -0.000000
									CHANNELS 3 Zrotation Yrotation Xrotation
									JOINT LeftHand
									{
										OFFSET 18.484802 0.000000 -0.000000
										CHANNELS 3 Zrotation Yrotation Xrotation
										End Site
										{
											OFFSET 0.000000 0.000000 0.000000
										}
									}
								}
							}
						}
					}
					JOINT RightShoulder_virtual
					{
						OFFSET 0.000000 0.000000 0.000000
						CHANNELS 3 Zrotation Yrotation Xrotation
						JOINT RightShoulder
						{
							OFFSET -4.392200 8.824993 0.141379
							CHANNELS 3 Zrotation Yrotation Xrotation
							JOINT RightArm
							{
								OFFSET -8.771282 -2.981682 -0.094208
								CHANNELS 3 Zrotation Yrotation Xrotation
								JOINT RightForeArm
								{
									OFFSET -8.494598 0.000000 0.000000
									CHANNELS 3 Zrotation Yrotation Xrotation
									JOINT RightHand
									{
										OFFSET -18.483803 0.000000 0.000001
										CHANNELS 3 Zrotation Yrotation Xrotation
										End Site
										{
											OFFSET 0.000000 0.000000 0.000000
										}
									}
								}
							}
						}
					}
				}
			}
		}
	}
}
MOTION
Frames: 4
Frame Time: 0.033333
-34.218178 36.066547 61.317581 179.877731 43.728705 179.809935 0.508303 -5.120894 7.658641 -3.136054 -1.269732 -26.315397 14.456710 5.959409 24.619150 -8.375164 0.343697 13.977005 0.000000 0.000000 0.000000 5.595265 -3.114575 5.142571 6.890945 4.220772 -14.839155 -5.639275 0.335206 15.624558 -1.143619 7.706987 13.740157 0.000000 0.000000 0.000000 3.637763 -0.572877 -1.915684 4.411280 0.832117 -12.654562 -2.587053 -3.017498 12.270419 0.020609 0.025626 -0.007791 -2.732684 -0.974259 14.069840 -11.209706 3.962357 20.282213 0.000000 0.000000 0.000000 -0.813527 -0.334643 10.572418 -9.739069 -1.806092 2.710690 -53.068797 15.857546 23.337078 0.083278 -47.045045 10.522109 0.000000 0.000000 0.000000 -5.067521 0.897150 10.044589 25.330260 7.344253 1.103709 50.994267 -19.695399 13.692490 -6.285600 39.470482 -3.934491 0.000000 0.000000 0.000000 
-34.216827 36.050667 61.232876 179.806151 43.582860 179.842351 0.355733 -5.200259 7.678371 -2.941768 -1.387752 -25.873578 14.561941 5.649353 24.046453 -8.408047 0.372417 13.461272 0.000000 0.000000 0.000000 5.729436 -3.382152 5.180406 7.230854 3.816773 -15.236598 -5.958775 -0.112038 16.399322 -1.932458 7.145338 13.597481 0.000000 0.000000 0.000000 3.531445 -0.480600 -2.074030 4.212116 0.804524 -12.807091 -2.402181 -3.035525 12.208017 0.042110 0.032795 0.032254 -2.810473 -1.131381 14.066811 -11.230706 4.006624 20.290443 0.000000 0.000000 0.000000 -0.875630 -0.490594 10.504025 -9.611621 -1.930260 2.777718 -52.950659 15.117592 22.735453 -0.083993 -48.160856 10.589376 0.000000 0.000000 0.000000 -5.130853 0.816675 10.006820 25.284558 7.128688 1.117575 50.910157 -19.891780 13.218428 -6.304353 39.718202 -3.937062 0.000000 0.000000 0.000000 
-34.251766 36.011280 61.112797 179.990129 43.754547 179.943765 0.395367 -5.113720 7.715297 -2.690433 -1.552306 -24.998137 14.525374 4.360861 23.092350 -8.858655 0.088619 12.256382 0.000000 0.000000 0.000000 5.722669 -3.013888 5.309158 7.327505 3.795081 -15.373327 -6.218506 -0.045663 16.952478 -1.861491 7.188871 13.207759 0.000000 0.000000 0.000000 3.506253 -0.450511 -2.159670 4.197114 0.765532 -12.909391 -2.418536 -3.018104 12.138183 -0.020449 0.041583 0.005230 -2.716500 -0.986140 14.010085 -11.213706 4.137984 20.295204 0.000000 0.000000 0.000000 -0.746542 -0.443252 10.407882 -9.521025 -1.951257 2.666146 -52.717961 13.990387 21.713889 -0.544880 -50.160240 10.965525 0.000000 0.000000 0.000000 -5.033954 0.841028 9.967383 25.306553 7.050534 1.086272 50.692318 -20.198983 12.693006 -6.291944 40.102599 -3.885900 0.000000 0.000000 0.000000 
-34.310135 35.964870 60.972004 179.982233 43.868072 -179.969310 0.409234 -5.305534 7.811494 -2.445616 -2.038493 -24.104648 14.453966 3.148448 21.998870 -10.118868 -0.812202 11.389544 0.000000 0.000000 0.000000 5.533831 -2.785638 5.362899 7.378501 3.777350 -15.520638 -6.362304 0.007149 17.335032 -1.812249 7.354439 12.896966 0.000000 0.000000 0.000000 3.421699 -0.524018 -2.374765 3.991817 0.769728 -12.986012 -2.351662 -2.978742 12.047054 0.002345 0.111957 0.032424 -2.696540 -1.017504 13.941114 -11.179376 4.206487 20.256533 0.000000 0.000000 0.000000 -0.687092 -0.451479 10.313181 -9.439942 -2.013111 2.576370 -52.460033 12.805418 20.425592 -1.176001 -52.647737 11.480419 0.000000 0.000000 0.000000 -5.006013 0.849301 9.900531 25.393778 7.012170 1.117604 50.431381 -20.526211 12.231519 -6.294690 40.437445 -3.955760 0.000000 0.000000 0.000000 
